<svg xmlns="http://www.w3.org/2000/svg" width="1200" height="630" viewBox="0 0 1200 630">
<defs>
  <linearGradient id="bggrad" x1="0" y1="0" x2="1" y2="1">
    <stop offset="0%" stop-color="#f0fafa"/>
    <stop offset="100%" stop-color="#ffffff"/>
  </linearGradient>
  <linearGradient id="sidegrad" x1="0" y1="0" x2="1" y2="0">
    <stop offset="0%" stop-color="#1a5c5c"/>
    <stop offset="100%" stop-color="#2e8b8b"/>
  </linearGradient>
</defs>
<rect width="1200" height="630" fill="url(#bggrad)"/>
<rect x="0" y="0" width="12" height="630" fill="url(#sidegrad)"/>
<rect x="820" y="0" width="380" height="630" fill="#e6f4f4" opacity="0.6"/>
<rect x="820" y="0" width="2" height="630" fill="#c8e0e0"/>
<line x1="840" y1="80" x2="1180" y2="80" stroke="#c8e0e0" stroke-width="1"/>
<line x1="840" y1="168" x2="1180" y2="168" stroke="#c8e0e0" stroke-width="1"/>
<line x1="840" y1="256" x2="1180" y2="256" stroke="#c8e0e0" stroke-width="1"/>
<line x1="840" y1="344" x2="1180" y2="344" stroke="#c8e0e0" stroke-width="1"/>
<line x1="840" y1="432" x2="1180" y2="432" stroke="#c8e0e0" stroke-width="1"/>
<line x1="840" y1="520" x2="1180" y2="520" stroke="#c8e0e0" stroke-width="1"/>
<text x="1000" y="88" text-anchor="middle" font-family="-apple-system, BlinkMacSystemFont, 'Segoe UI', Helvetica, Arial, sans-serif" font-size="12" font-weight="600" fill="#64748b">PRE-ACTION PIPELINE</text>
<rect x="920" y="110" width="150" height="36" rx="6" fill="#fee2e2" stroke="#ef4444" stroke-width="1.5"/>
<text x="995" y="133" text-anchor="middle" font-family="-apple-system, BlinkMacSystemFont, 'Segoe UI', Helvetica, Arial, sans-serif" font-size="12" font-weight="600" fill="#991b1b">S1 Forbidden</text>
<line x1="995" y1="148" x2="995" y2="152" stroke="#64748b" stroke-width="1.5"/>
<polygon points="995,154 990,148 1000,148" fill="#64748b"/>
<rect x="920" y="162" width="150" height="36" rx="6" fill="#fef3c7" stroke="#f59e0b" stroke-width="1.5"/>
<text x="995" y="185" text-anchor="middle" font-family="-apple-system, BlinkMacSystemFont, 'Segoe UI', Helvetica, Arial, sans-serif" font-size="12" font-weight="600" fill="#92400e">S2 Approval</text>
<line x1="995" y1="200" x2="995" y2="204" stroke="#64748b" stroke-width="1.5"/>
<polygon points="995,206 990,200 1000,200" fill="#64748b"/>
<rect x="920" y="214" width="150" height="36" rx="6" fill="#d1fae5" stroke="#10b981" stroke-width="1.5"/>
<text x="995" y="237" text-anchor="middle" font-family="-apple-system, BlinkMacSystemFont, 'Segoe UI', Helvetica, Arial, sans-serif" font-size="12" font-weight="600" fill="#065f46">S3 Budget</text>
<line x1="995" y1="252" x2="995" y2="256" stroke="#64748b" stroke-width="1.5"/>
<polygon points="995,258 990,252 1000,252" fill="#64748b"/>
<rect x="920" y="266" width="150" height="36" rx="6" fill="#e0e7ff" stroke="#6366f1" stroke-width="1.5"/>
<text x="995" y="289" text-anchor="middle" font-family="-apple-system, BlinkMacSystemFont, 'Segoe UI', Helvetica, Arial, sans-serif" font-size="12" font-weight="600" fill="#3730a3">S4 Classify</text>
<line x1="995" y1="304" x2="995" y2="308" stroke="#64748b" stroke-width="1.5"/>
<polygon points="995,310 990,304 1000,304" fill="#64748b"/>
<rect x="920" y="318" width="150" height="36" rx="6" fill="#f0fdf4" stroke="#22c55e" stroke-width="1.5"/>
<text x="995" y="341" text-anchor="middle" font-family="-apple-system, BlinkMacSystemFont, 'Segoe UI', Helvetica, Arial, sans-serif" font-size="12" font-weight="600" fill="#15803d">S5 Policy</text>
<line x1="995" y1="356" x2="995" y2="360" stroke="#64748b" stroke-width="1.5"/>
<polygon points="995,362 990,356 1000,356" fill="#64748b"/>
<rect x="940" y="374" width="110" height="28" rx="14" fill="#1a5c5c" opacity="0.9"/>
<text x="995" y="393" text-anchor="middle" font-family="-apple-system, BlinkMacSystemFont, 'Segoe UI', Helvetica, Arial, sans-serif" font-size="12" font-weight="700" fill="#ffffff">✓ cleared</text>
<rect x="44" y="60" width="72" height="72" rx="16" fill="#1a5c5c"/>
<text x="80" y="117" text-anchor="middle" font-family="-apple-system, BlinkMacSystemFont, 'Segoe UI', Helvetica, Arial, sans-serif" font-size="48" font-weight="700" fill="#ffffff">S</text>
<text x="132" y="100" text-anchor="start" font-family="-apple-system, BlinkMacSystemFont, 'Segoe UI', Helvetica, Arial, sans-serif" font-size="42" font-weight="800" fill="#0f3d3d">SIDJUA</text>
<text x="132" y="128" text-anchor="start" font-family="-apple-system, BlinkMacSystemFont, 'Segoe UI', Helvetica, Arial, sans-serif" font-size="14" font-weight="400" fill="#64748b">AI Agent Governance Platform</text>
<text x="44" y="195" text-anchor="start" font-family="-apple-system, BlinkMacSystemFont, 'Segoe UI', Helvetica, Arial, sans-serif" font-size="28" font-weight="700" fill="#0f3d3d">Governance by Architecture.</text>
<text x="44" y="235" text-anchor="start" font-family="-apple-system, BlinkMacSystemFont, 'Segoe UI', Helvetica, Arial, sans-serif" font-size="28" font-weight="700" fill="#1a5c5c">Not by hoping.</text>
<text x="44" y="285" text-anchor="start" font-family="-apple-system, BlinkMacSystemFont, 'Segoe UI', Helvetica, Arial, sans-serif" font-size="17" font-weight="400" fill="#64748b">Every agent action checked before execution —</text>
<text x="44" y="308" text-anchor="start" font-family="-apple-system, BlinkMacSystemFont, 'Segoe UI', Helvetica, Arial, sans-serif" font-size="17" font-weight="400" fill="#64748b">outside the model, enforced in code.</text>
<rect x="44" y="350" width="131" height="32" rx="16" fill="#e6f4f4" stroke="#c8e0e0" stroke-width="1.5"/>
<text x="109.5" y="371" text-anchor="middle" font-family="-apple-system, BlinkMacSystemFont, 'Segoe UI', Helvetica, Arial, sans-serif" font-size="13" font-weight="500" fill="#1a5c5c">Self-Hosted</text>
<rect x="187" y="350" width="167" height="32" rx="16" fill="#e6f4f4" stroke="#c8e0e0" stroke-width="1.5"/>
<text x="270.5" y="371" text-anchor="middle" font-family="-apple-system, BlinkMacSystemFont, 'Segoe UI', Helvetica, Arial, sans-serif" font-size="13" font-weight="500" fill="#1a5c5c">Air-Gap Capable</text>
<rect x="366" y="350" width="95" height="32" rx="16" fill="#e6f4f4" stroke="#c8e0e0" stroke-width="1.5"/>
<text x="413.5" y="371" text-anchor="middle" font-family="-apple-system, BlinkMacSystemFont, 'Segoe UI', Helvetica, Arial, sans-serif" font-size="13" font-weight="500" fill="#1a5c5c">Any LLM</text>
<rect x="473" y="350" width="104" height="32" rx="16" fill="#e6f4f4" stroke="#c8e0e0" stroke-width="1.5"/>
<text x="525" y="371" text-anchor="middle" font-family="-apple-system, BlinkMacSystemFont, 'Segoe UI', Helvetica, Arial, sans-serif" font-size="13" font-weight="500" fill="#1a5c5c">AGPL-3.0</text>
<rect x="44" y="415" width="720" height="64" rx="10" fill="#0f3d3d"/>
<text x="68" y="440" text-anchor="start" font-family="'Courier New', Courier, monospace" font-size="13" font-weight="400" fill="#94a3b8">$ </text>
<text x="84" y="440" text-anchor="start" font-family="'Courier New', Courier, monospace" font-size="13" font-weight="400" fill="#4ade80">docker run</text>
<text x="168" y="440" text-anchor="start" font-family="'Courier New', Courier, monospace" font-size="13" font-weight="400" fill="#ffffff"> -p 4200:4200 sidjua/sidjua:latest</text>
<text x="68" y="462" text-anchor="start" font-family="'Courier New', Courier, monospace" font-size="12" font-weight="400" fill="#94a3b8"># No API keys, no config, no signup — open http://localhost:4200</text>
<rect x="0" y="574" width="1200" height="56" fill="#1a5c5c" opacity="0.07"/>
<line x1="0" y1="574" x2="1200" y2="574" stroke="#c8e0e0" stroke-width="1"/>
<text x="44" y="606" text-anchor="start" font-family="-apple-system, BlinkMacSystemFont, 'Segoe UI', Helvetica, Arial, sans-serif" font-size="14" font-weight="600" fill="#1a5c5c">sidjua.com</text>
<text x="180" y="606" text-anchor="start" font-family="-apple-system, BlinkMacSystemFont, 'Segoe UI', Helvetica, Arial, sans-serif" font-size="14" font-weight="400" fill="#64748b">·</text>
<text x="196" y="606" text-anchor="start" font-family="-apple-system, BlinkMacSystemFont, 'Segoe UI', Helvetica, Arial, sans-serif" font-size="14" font-weight="400" fill="#64748b">Open Source · AGPL-3.0</text>
<text x="1156" y="606" text-anchor="end" font-family="-apple-system, BlinkMacSystemFont, 'Segoe UI', Helvetica, Arial, sans-serif" font-size="14" font-weight="400" fill="#64748b">v1.0.0</text>
</svg>